<mxfile host="app.diagrams.net" agent="Mozilla/5.0 (Windows NT 10.0; Win64; x64) AppleWebKit/537.36 (KHTML, like Gecko) Chrome/135.0.0.0 Safari/537.36 Edg/135.0.0.0" version="26.2.13">
  <diagram name="Page-1" id="Ky_NxfQnBmBwwMIMv_-A">
    <mxGraphModel dx="234" dy="315" grid="1" gridSize="10" guides="1" tooltips="1" connect="1" arrows="1" fold="1" page="1" pageScale="1" pageWidth="850" pageHeight="1100" math="0" shadow="0">
      <root>
        <mxCell id="0" />
        <mxCell id="1" parent="0" />
        <mxCell id="JPdLuo9PhUIrSg_-qimx-1" value="Cliente" style="shape=umlActor;verticalLabelPosition=bottom;verticalAlign=top;html=1;outlineConnect=0;strokeWidth=2;" parent="1" vertex="1">
          <mxGeometry x="40" y="280" width="30" height="60" as="geometry" />
        </mxCell>
        <mxCell id="JPdLuo9PhUIrSg_-qimx-3" value="website FelixBus" style="swimlane;whiteSpace=wrap;html=1;" parent="1" vertex="1">
          <mxGeometry x="100" y="40" width="470" height="610" as="geometry" />
        </mxCell>
        <mxCell id="JPdLuo9PhUIrSg_-qimx-4" value="Consultar informacoes de viagem" style="ellipse;whiteSpace=wrap;html=1;" parent="JPdLuo9PhUIrSg_-qimx-3" vertex="1">
          <mxGeometry x="60" y="100" width="80" height="60" as="geometry" />
        </mxCell>
        <mxCell id="JPdLuo9PhUIrSg_-qimx-5" value="Visualizar alertas/ informacoes/ promocoes" style="ellipse;whiteSpace=wrap;html=1;" parent="JPdLuo9PhUIrSg_-qimx-3" vertex="1">
          <mxGeometry x="55" y="180" width="90" height="70" as="geometry" />
        </mxCell>
        <mxCell id="JPdLuo9PhUIrSg_-qimx-6" value="Consultar e editar dados pessoais" style="ellipse;whiteSpace=wrap;html=1;" parent="JPdLuo9PhUIrSg_-qimx-3" vertex="1">
          <mxGeometry x="65" y="270" width="80" height="60" as="geometry" />
        </mxCell>
        <mxCell id="JPdLuo9PhUIrSg_-qimx-7" value="Gerir bilhetes" style="ellipse;whiteSpace=wrap;html=1;" parent="JPdLuo9PhUIrSg_-qimx-3" vertex="1">
          <mxGeometry x="65" y="350" width="80" height="60" as="geometry" />
        </mxCell>
        <mxCell id="JPdLuo9PhUIrSg_-qimx-8" value="Gerir carteira" style="ellipse;whiteSpace=wrap;html=1;" parent="JPdLuo9PhUIrSg_-qimx-3" vertex="1">
          <mxGeometry x="65" y="430" width="80" height="60" as="geometry" />
        </mxCell>
        <mxCell id="JPdLuo9PhUIrSg_-qimx-9" value="Autenticar-se" style="ellipse;whiteSpace=wrap;html=1;" parent="JPdLuo9PhUIrSg_-qimx-3" vertex="1">
          <mxGeometry x="245" y="210" width="80" height="60" as="geometry" />
        </mxCell>
        <mxCell id="JPdLuo9PhUIrSg_-qimx-17" value="Encerrar sessao" style="ellipse;whiteSpace=wrap;html=1;" parent="JPdLuo9PhUIrSg_-qimx-3" vertex="1">
          <mxGeometry x="380" y="220" width="70" height="40" as="geometry" />
        </mxCell>
        <mxCell id="JPdLuo9PhUIrSg_-qimx-23" value="" style="endArrow=classic;html=1;rounded=0;dashed=1;exitX=1;exitY=0.5;exitDx=0;exitDy=0;entryX=0;entryY=0;entryDx=0;entryDy=0;" parent="JPdLuo9PhUIrSg_-qimx-3" source="JPdLuo9PhUIrSg_-qimx-4" target="JPdLuo9PhUIrSg_-qimx-9" edge="1">
          <mxGeometry width="50" height="50" relative="1" as="geometry">
            <mxPoint x="200" y="300" as="sourcePoint" />
            <mxPoint x="250" y="250" as="targetPoint" />
          </mxGeometry>
        </mxCell>
        <mxCell id="JPdLuo9PhUIrSg_-qimx-28" value="&lt;font style=&quot;font-size: 8px;&quot;&gt;&amp;lt;&amp;lt;include&amp;gt;&amp;gt;&lt;/font&gt;" style="edgeLabel;html=1;align=center;verticalAlign=middle;resizable=0;points=[];" parent="JPdLuo9PhUIrSg_-qimx-23" vertex="1" connectable="0">
          <mxGeometry x="0.065" y="2" relative="1" as="geometry">
            <mxPoint as="offset" />
          </mxGeometry>
        </mxCell>
        <mxCell id="JPdLuo9PhUIrSg_-qimx-24" value="" style="endArrow=classic;html=1;rounded=0;dashed=1;exitX=1;exitY=0.5;exitDx=0;exitDy=0;entryX=0;entryY=0.5;entryDx=0;entryDy=0;" parent="JPdLuo9PhUIrSg_-qimx-3" source="JPdLuo9PhUIrSg_-qimx-5" target="JPdLuo9PhUIrSg_-qimx-9" edge="1">
          <mxGeometry width="50" height="50" relative="1" as="geometry">
            <mxPoint x="150" y="96" as="sourcePoint" />
            <mxPoint x="266" y="255" as="targetPoint" />
          </mxGeometry>
        </mxCell>
        <mxCell id="JPdLuo9PhUIrSg_-qimx-29" value="&lt;font style=&quot;font-size: 8px;&quot;&gt;&amp;lt;&amp;lt;include&amp;gt;&amp;gt;&lt;/font&gt;" style="edgeLabel;html=1;align=center;verticalAlign=middle;resizable=0;points=[];" parent="JPdLuo9PhUIrSg_-qimx-24" vertex="1" connectable="0">
          <mxGeometry x="-0.2075" y="-2" relative="1" as="geometry">
            <mxPoint as="offset" />
          </mxGeometry>
        </mxCell>
        <mxCell id="JPdLuo9PhUIrSg_-qimx-25" value="" style="endArrow=classic;html=1;rounded=0;dashed=1;exitX=1;exitY=0.5;exitDx=0;exitDy=0;entryX=0;entryY=0.5;entryDx=0;entryDy=0;" parent="JPdLuo9PhUIrSg_-qimx-3" source="JPdLuo9PhUIrSg_-qimx-6" target="JPdLuo9PhUIrSg_-qimx-9" edge="1">
          <mxGeometry width="50" height="50" relative="1" as="geometry">
            <mxPoint x="155" y="155" as="sourcePoint" />
            <mxPoint x="255" y="260" as="targetPoint" />
          </mxGeometry>
        </mxCell>
        <mxCell id="JPdLuo9PhUIrSg_-qimx-30" value="&lt;font style=&quot;font-size: 8px;&quot;&gt;&amp;lt;&amp;lt;include&amp;gt;&amp;gt;&lt;/font&gt;" style="edgeLabel;html=1;align=center;verticalAlign=middle;resizable=0;points=[];" parent="JPdLuo9PhUIrSg_-qimx-25" vertex="1" connectable="0">
          <mxGeometry x="-0.2254" y="2" relative="1" as="geometry">
            <mxPoint as="offset" />
          </mxGeometry>
        </mxCell>
        <mxCell id="JPdLuo9PhUIrSg_-qimx-26" value="" style="endArrow=classic;html=1;rounded=0;dashed=1;exitX=1;exitY=0.5;exitDx=0;exitDy=0;entryX=0;entryY=0.5;entryDx=0;entryDy=0;fontStyle=1" parent="JPdLuo9PhUIrSg_-qimx-3" source="JPdLuo9PhUIrSg_-qimx-7" target="JPdLuo9PhUIrSg_-qimx-9" edge="1">
          <mxGeometry width="50" height="50" relative="1" as="geometry">
            <mxPoint x="145" y="265" as="sourcePoint" />
            <mxPoint x="250" y="295" as="targetPoint" />
          </mxGeometry>
        </mxCell>
        <mxCell id="JPdLuo9PhUIrSg_-qimx-31" value="&lt;font style=&quot;font-size: 8px;&quot;&gt;&amp;lt;&amp;lt;include&amp;gt;&amp;gt;&lt;/font&gt;" style="edgeLabel;html=1;align=center;verticalAlign=middle;resizable=0;points=[];" parent="JPdLuo9PhUIrSg_-qimx-26" vertex="1" connectable="0">
          <mxGeometry x="-0.3176" y="2" relative="1" as="geometry">
            <mxPoint as="offset" />
          </mxGeometry>
        </mxCell>
        <mxCell id="JPdLuo9PhUIrSg_-qimx-27" value="" style="endArrow=classic;html=1;rounded=0;dashed=1;exitX=1;exitY=0.5;exitDx=0;exitDy=0;entryX=0;entryY=1;entryDx=0;entryDy=0;fontStyle=1" parent="JPdLuo9PhUIrSg_-qimx-3" source="JPdLuo9PhUIrSg_-qimx-8" target="JPdLuo9PhUIrSg_-qimx-9" edge="1">
          <mxGeometry width="50" height="50" relative="1" as="geometry">
            <mxPoint x="150" y="290" as="sourcePoint" />
            <mxPoint x="266" y="271" as="targetPoint" />
          </mxGeometry>
        </mxCell>
        <mxCell id="JPdLuo9PhUIrSg_-qimx-32" value="&lt;font style=&quot;font-size: 8px;&quot;&gt;&amp;lt;&amp;lt;include&amp;gt;&amp;gt;&lt;/font&gt;" style="edgeLabel;html=1;align=center;verticalAlign=middle;resizable=0;points=[];" parent="JPdLuo9PhUIrSg_-qimx-27" vertex="1" connectable="0">
          <mxGeometry x="0.0441" y="1" relative="1" as="geometry">
            <mxPoint as="offset" />
          </mxGeometry>
        </mxCell>
        <mxCell id="JPdLuo9PhUIrSg_-qimx-33" value="" style="endArrow=classic;html=1;rounded=0;exitX=1;exitY=0.5;exitDx=0;exitDy=0;entryX=0;entryY=0.5;entryDx=0;entryDy=0;dashed=1;" parent="JPdLuo9PhUIrSg_-qimx-3" source="JPdLuo9PhUIrSg_-qimx-9" target="JPdLuo9PhUIrSg_-qimx-17" edge="1">
          <mxGeometry width="50" height="50" relative="1" as="geometry">
            <mxPoint x="320" y="350" as="sourcePoint" />
            <mxPoint x="370" y="300" as="targetPoint" />
          </mxGeometry>
        </mxCell>
        <mxCell id="JPdLuo9PhUIrSg_-qimx-34" value="&amp;lt;&amp;lt;extend&amp;gt;&amp;gt;" style="edgeLabel;html=1;align=center;verticalAlign=middle;resizable=0;points=[];" parent="JPdLuo9PhUIrSg_-qimx-33" vertex="1" connectable="0">
          <mxGeometry x="0.0258" y="2" relative="1" as="geometry">
            <mxPoint y="22" as="offset" />
          </mxGeometry>
        </mxCell>
        <mxCell id="z9cZxc0zxAFtwvczOgAe-1" value="Consultar rotas" style="ellipse;whiteSpace=wrap;html=1;" parent="JPdLuo9PhUIrSg_-qimx-3" vertex="1">
          <mxGeometry x="200" y="30" width="70" height="50" as="geometry" />
        </mxCell>
        <mxCell id="z9cZxc0zxAFtwvczOgAe-2" value="Consultar horarios" style="ellipse;whiteSpace=wrap;html=1;" parent="JPdLuo9PhUIrSg_-qimx-3" vertex="1">
          <mxGeometry x="90" y="30" width="70" height="50" as="geometry" />
        </mxCell>
        <mxCell id="z9cZxc0zxAFtwvczOgAe-3" value="Consultar precos" style="ellipse;whiteSpace=wrap;html=1;" parent="JPdLuo9PhUIrSg_-qimx-3" vertex="1">
          <mxGeometry x="200" y="100" width="70" height="50" as="geometry" />
        </mxCell>
        <mxCell id="z9cZxc0zxAFtwvczOgAe-5" value="" style="endArrow=classic;html=1;rounded=0;entryX=0.5;entryY=1;entryDx=0;entryDy=0;exitX=0.5;exitY=0;exitDx=0;exitDy=0;dashed=1;" parent="JPdLuo9PhUIrSg_-qimx-3" source="JPdLuo9PhUIrSg_-qimx-4" target="z9cZxc0zxAFtwvczOgAe-2" edge="1">
          <mxGeometry width="50" height="50" relative="1" as="geometry">
            <mxPoint x="40" y="110" as="sourcePoint" />
            <mxPoint x="90" y="60" as="targetPoint" />
          </mxGeometry>
        </mxCell>
        <mxCell id="z9cZxc0zxAFtwvczOgAe-6" value="&lt;font style=&quot;font-size: 8px;&quot;&gt;&amp;lt;&amp;lt;extend&amp;gt;&amp;gt;&lt;/font&gt;" style="edgeLabel;html=1;align=center;verticalAlign=middle;resizable=0;points=[];" parent="z9cZxc0zxAFtwvczOgAe-5" vertex="1" connectable="0">
          <mxGeometry x="-0.1975" y="2" relative="1" as="geometry">
            <mxPoint x="-19" as="offset" />
          </mxGeometry>
        </mxCell>
        <mxCell id="z9cZxc0zxAFtwvczOgAe-7" value="" style="endArrow=classic;html=1;rounded=0;entryX=0;entryY=0.5;entryDx=0;entryDy=0;exitX=1;exitY=0;exitDx=0;exitDy=0;dashed=1;" parent="JPdLuo9PhUIrSg_-qimx-3" source="JPdLuo9PhUIrSg_-qimx-4" target="z9cZxc0zxAFtwvczOgAe-1" edge="1">
          <mxGeometry width="50" height="50" relative="1" as="geometry">
            <mxPoint x="110" y="210" as="sourcePoint" />
            <mxPoint x="160" y="160" as="targetPoint" />
          </mxGeometry>
        </mxCell>
        <mxCell id="z9cZxc0zxAFtwvczOgAe-8" value="&lt;font style=&quot;font-size: 8px;&quot;&gt;&amp;lt;&amp;lt;extend&amp;gt;&amp;gt;&lt;/font&gt;" style="edgeLabel;html=1;align=center;verticalAlign=middle;resizable=0;points=[];" parent="z9cZxc0zxAFtwvczOgAe-7" vertex="1" connectable="0">
          <mxGeometry x="-0.0704" y="1" relative="1" as="geometry">
            <mxPoint as="offset" />
          </mxGeometry>
        </mxCell>
        <mxCell id="z9cZxc0zxAFtwvczOgAe-9" value="" style="endArrow=classic;html=1;rounded=0;entryX=0;entryY=0.5;entryDx=0;entryDy=0;exitX=1;exitY=0.5;exitDx=0;exitDy=0;dashed=1;" parent="JPdLuo9PhUIrSg_-qimx-3" source="JPdLuo9PhUIrSg_-qimx-4" target="z9cZxc0zxAFtwvczOgAe-3" edge="1">
          <mxGeometry width="50" height="50" relative="1" as="geometry">
            <mxPoint x="100" y="210" as="sourcePoint" />
            <mxPoint x="150" y="160" as="targetPoint" />
          </mxGeometry>
        </mxCell>
        <mxCell id="z9cZxc0zxAFtwvczOgAe-10" value="&lt;font style=&quot;font-size: 8px;&quot;&gt;&amp;lt;&amp;lt;extend&amp;gt;&amp;gt;&lt;/font&gt;" style="edgeLabel;html=1;align=center;verticalAlign=middle;resizable=0;points=[];" parent="z9cZxc0zxAFtwvczOgAe-9" vertex="1" connectable="0">
          <mxGeometry x="-0.1731" y="2" relative="1" as="geometry">
            <mxPoint y="-10" as="offset" />
          </mxGeometry>
        </mxCell>
        <mxCell id="azEhdMdE8wlUdrdvgimi-1" value="Levantar saldo" style="ellipse;whiteSpace=wrap;html=1;" parent="JPdLuo9PhUIrSg_-qimx-3" vertex="1">
          <mxGeometry x="160" y="495" width="60" height="45" as="geometry" />
        </mxCell>
        <mxCell id="azEhdMdE8wlUdrdvgimi-32" value="Adiconar saldo" style="ellipse;whiteSpace=wrap;html=1;" parent="JPdLuo9PhUIrSg_-qimx-3" vertex="1">
          <mxGeometry x="100" y="540" width="60" height="40" as="geometry" />
        </mxCell>
        <mxCell id="azEhdMdE8wlUdrdvgimi-33" value="Comprar bilhete" style="ellipse;whiteSpace=wrap;html=1;" parent="JPdLuo9PhUIrSg_-qimx-3" vertex="1">
          <mxGeometry x="245" y="420" width="60" height="50" as="geometry" />
        </mxCell>
        <mxCell id="azEhdMdE8wlUdrdvgimi-35" value="" style="endArrow=classic;html=1;rounded=0;dashed=1;exitX=1;exitY=0.5;exitDx=0;exitDy=0;entryX=0.5;entryY=0;entryDx=0;entryDy=0;fontStyle=1" parent="JPdLuo9PhUIrSg_-qimx-3" source="JPdLuo9PhUIrSg_-qimx-8" target="azEhdMdE8wlUdrdvgimi-1" edge="1">
          <mxGeometry width="50" height="50" relative="1" as="geometry">
            <mxPoint x="155" y="470" as="sourcePoint" />
            <mxPoint x="267" y="271" as="targetPoint" />
          </mxGeometry>
        </mxCell>
        <mxCell id="azEhdMdE8wlUdrdvgimi-36" value="&lt;font style=&quot;font-size: 8px;&quot;&gt;&amp;lt;&amp;lt;include&amp;gt;&amp;gt;&lt;/font&gt;" style="edgeLabel;html=1;align=center;verticalAlign=middle;resizable=0;points=[];" parent="azEhdMdE8wlUdrdvgimi-35" vertex="1" connectable="0">
          <mxGeometry x="0.0441" y="1" relative="1" as="geometry">
            <mxPoint as="offset" />
          </mxGeometry>
        </mxCell>
        <mxCell id="azEhdMdE8wlUdrdvgimi-37" value="" style="endArrow=classic;html=1;rounded=0;dashed=1;exitX=0.5;exitY=1;exitDx=0;exitDy=0;entryX=0.5;entryY=0;entryDx=0;entryDy=0;fontStyle=1" parent="JPdLuo9PhUIrSg_-qimx-3" source="JPdLuo9PhUIrSg_-qimx-8" target="azEhdMdE8wlUdrdvgimi-32" edge="1">
          <mxGeometry width="50" height="50" relative="1" as="geometry">
            <mxPoint x="111" y="499" as="sourcePoint" />
            <mxPoint x="156" y="527" as="targetPoint" />
          </mxGeometry>
        </mxCell>
        <mxCell id="azEhdMdE8wlUdrdvgimi-38" value="&lt;font style=&quot;font-size: 8px;&quot;&gt;&amp;lt;&amp;lt;include&amp;gt;&amp;gt;&lt;/font&gt;" style="edgeLabel;html=1;align=center;verticalAlign=middle;resizable=0;points=[];" parent="azEhdMdE8wlUdrdvgimi-37" vertex="1" connectable="0">
          <mxGeometry x="0.0441" y="1" relative="1" as="geometry">
            <mxPoint as="offset" />
          </mxGeometry>
        </mxCell>
        <mxCell id="azEhdMdE8wlUdrdvgimi-40" value="" style="endArrow=classic;html=1;rounded=0;dashed=1;exitX=1;exitY=0.5;exitDx=0;exitDy=0;entryX=0;entryY=0.5;entryDx=0;entryDy=0;fontStyle=1" parent="JPdLuo9PhUIrSg_-qimx-3" source="JPdLuo9PhUIrSg_-qimx-7" target="azEhdMdE8wlUdrdvgimi-33" edge="1">
          <mxGeometry width="50" height="50" relative="1" as="geometry">
            <mxPoint x="155" y="470" as="sourcePoint" />
            <mxPoint x="267" y="271" as="targetPoint" />
          </mxGeometry>
        </mxCell>
        <mxCell id="azEhdMdE8wlUdrdvgimi-41" value="&lt;font style=&quot;font-size: 8px;&quot;&gt;&amp;lt;&amp;lt;include&amp;gt;&amp;gt;&lt;/font&gt;" style="edgeLabel;html=1;align=center;verticalAlign=middle;resizable=0;points=[];" parent="azEhdMdE8wlUdrdvgimi-40" vertex="1" connectable="0">
          <mxGeometry x="0.0441" y="1" relative="1" as="geometry">
            <mxPoint as="offset" />
          </mxGeometry>
        </mxCell>
        <mxCell id="azEhdMdE8wlUdrdvgimi-42" value="Consultar bilhetes comprados" style="ellipse;whiteSpace=wrap;html=1;" parent="JPdLuo9PhUIrSg_-qimx-3" vertex="1">
          <mxGeometry x="230" y="355" width="90" height="55" as="geometry" />
        </mxCell>
        <mxCell id="azEhdMdE8wlUdrdvgimi-43" value="" style="endArrow=classic;html=1;rounded=0;dashed=1;exitX=1;exitY=0.5;exitDx=0;exitDy=0;entryX=0;entryY=0.5;entryDx=0;entryDy=0;fontStyle=1" parent="JPdLuo9PhUIrSg_-qimx-3" source="JPdLuo9PhUIrSg_-qimx-7" target="azEhdMdE8wlUdrdvgimi-42" edge="1">
          <mxGeometry width="50" height="50" relative="1" as="geometry">
            <mxPoint x="155" y="351" as="sourcePoint" />
            <mxPoint x="240" y="436" as="targetPoint" />
          </mxGeometry>
        </mxCell>
        <mxCell id="azEhdMdE8wlUdrdvgimi-44" value="&lt;font style=&quot;font-size: 8px;&quot;&gt;&amp;lt;&amp;lt;include&amp;gt;&amp;gt;&lt;/font&gt;" style="edgeLabel;html=1;align=center;verticalAlign=middle;resizable=0;points=[];" parent="azEhdMdE8wlUdrdvgimi-43" vertex="1" connectable="0">
          <mxGeometry x="0.0441" y="1" relative="1" as="geometry">
            <mxPoint as="offset" />
          </mxGeometry>
        </mxCell>
        <mxCell id="azEhdMdE8wlUdrdvgimi-45" value="Consultar saldo" style="ellipse;whiteSpace=wrap;html=1;" parent="JPdLuo9PhUIrSg_-qimx-3" vertex="1">
          <mxGeometry x="30" y="540" width="60" height="40" as="geometry" />
        </mxCell>
        <mxCell id="azEhdMdE8wlUdrdvgimi-46" value="" style="endArrow=classic;html=1;rounded=0;dashed=1;exitX=0;exitY=1;exitDx=0;exitDy=0;entryX=0.5;entryY=0;entryDx=0;entryDy=0;fontStyle=1" parent="JPdLuo9PhUIrSg_-qimx-3" source="JPdLuo9PhUIrSg_-qimx-8" target="azEhdMdE8wlUdrdvgimi-45" edge="1">
          <mxGeometry width="50" height="50" relative="1" as="geometry">
            <mxPoint x="79" y="500" as="sourcePoint" />
            <mxPoint x="104" y="550" as="targetPoint" />
          </mxGeometry>
        </mxCell>
        <mxCell id="azEhdMdE8wlUdrdvgimi-47" value="&lt;font style=&quot;font-size: 8px;&quot;&gt;&amp;lt;&amp;lt;include&amp;gt;&amp;gt;&lt;/font&gt;" style="edgeLabel;html=1;align=center;verticalAlign=middle;resizable=0;points=[];" parent="azEhdMdE8wlUdrdvgimi-46" vertex="1" connectable="0">
          <mxGeometry x="0.0441" y="1" relative="1" as="geometry">
            <mxPoint as="offset" />
          </mxGeometry>
        </mxCell>
        <mxCell id="JPdLuo9PhUIrSg_-qimx-18" value="" style="endArrow=classic;html=1;rounded=0;entryX=0;entryY=0.5;entryDx=0;entryDy=0;" parent="1" target="JPdLuo9PhUIrSg_-qimx-4" edge="1">
          <mxGeometry width="50" height="50" relative="1" as="geometry">
            <mxPoint x="80" y="320" as="sourcePoint" />
            <mxPoint x="130" y="250" as="targetPoint" />
          </mxGeometry>
        </mxCell>
        <mxCell id="JPdLuo9PhUIrSg_-qimx-19" value="" style="endArrow=classic;html=1;rounded=0;entryX=0;entryY=0.5;entryDx=0;entryDy=0;" parent="1" target="JPdLuo9PhUIrSg_-qimx-5" edge="1">
          <mxGeometry width="50" height="50" relative="1" as="geometry">
            <mxPoint x="80" y="320" as="sourcePoint" />
            <mxPoint x="170" y="160" as="targetPoint" />
          </mxGeometry>
        </mxCell>
        <mxCell id="JPdLuo9PhUIrSg_-qimx-20" value="" style="endArrow=classic;html=1;rounded=0;entryX=0;entryY=0.5;entryDx=0;entryDy=0;" parent="1" target="JPdLuo9PhUIrSg_-qimx-6" edge="1">
          <mxGeometry width="50" height="50" relative="1" as="geometry">
            <mxPoint x="80" y="320" as="sourcePoint" />
            <mxPoint x="165" y="235" as="targetPoint" />
          </mxGeometry>
        </mxCell>
        <mxCell id="JPdLuo9PhUIrSg_-qimx-21" value="" style="endArrow=classic;html=1;rounded=0;entryX=0;entryY=0.5;entryDx=0;entryDy=0;" parent="1" target="JPdLuo9PhUIrSg_-qimx-7" edge="1">
          <mxGeometry width="50" height="50" relative="1" as="geometry">
            <mxPoint x="80" y="320" as="sourcePoint" />
            <mxPoint x="170" y="310" as="targetPoint" />
          </mxGeometry>
        </mxCell>
        <mxCell id="JPdLuo9PhUIrSg_-qimx-22" value="" style="endArrow=classic;html=1;rounded=0;entryX=0;entryY=0.5;entryDx=0;entryDy=0;" parent="1" target="JPdLuo9PhUIrSg_-qimx-8" edge="1">
          <mxGeometry width="50" height="50" relative="1" as="geometry">
            <mxPoint x="80" y="320" as="sourcePoint" />
            <mxPoint x="170" y="380" as="targetPoint" />
          </mxGeometry>
        </mxCell>
      </root>
    </mxGraphModel>
  </diagram>
</mxfile>
